<svg xmlns="http://www.w3.org/2000/svg" viewBox="0 0 568.84 568.84"><defs><style>.cls-1{fill:#0080ff;}.cls-2{fill:#fff;}</style></defs><title>Facebook</title><g id="Layer_2" data-name="Layer 2"><g id="Layer_1-2" data-name="Layer 1"><path class="cls-1" d="M568.84,284.42C568.84,127.34,441.5,0,284.42,0S0,127.34,0,284.42c0,142,104,259.63,240,281V366.63H167.76V284.42H240V221.76c0-71.29,42.46-110.66,107.43-110.66,31.12,0,63.67,5.56,63.67,5.56v70H375.21c-35.33,0-46.35,21.92-46.35,44.42v53.35h78.88l-12.61,82.21H328.86V565.38C464.83,544.05,568.84,426.38,568.84,284.42Z"/><path class="cls-2" d="M395.13,366.63l12.61-82.21H328.86V231.07c0-22.5,11-44.42,46.35-44.42h35.87v-70s-32.55-5.56-63.67-5.56c-65,0-107.43,39.37-107.43,110.66v62.66H167.76v82.21H240V565.38a287.12,287.12,0,0,0,88.88,0V366.63Z"/></g></g></svg>