<svg xmlns="http://www.w3.org/2000/svg" viewBox="0 0 460 448.36"><title>github</title><g id="Layer_2" data-name="Layer 2"><g id="Layer_1-2" data-name="Layer 1"><path d="M157.91,448.36A20,20,0,0,0,170,430V376a51.51,51.51,0,0,1,.41-6.1l-.41.1H134c-15,0-28-6-34-18-7-13-10-35-28-47-3-2-1-5,5-5,6,1,19,9,27,20,9,11,18,20,34,20,24.87,0,38.2-1.25,46.22-5.55C193.56,320.56,206.49,310,220,310v-.25c-56.68-1.82-92.89-20.66-109.75-49.75-36.65.42-68.56,4.05-86.77,7.07q-.87-4.9-1.51-9.87a612.6,612.6,0,0,1,83.45-7.14,81.62,81.62,0,0,1-2.91-8.49,646.24,646.24,0,0,0-81.87,1c-.2-3.32-.47-6.63-.51-10a655.19,655.19,0,0,1,80.18-1.11A98.32,98.32,0,0,1,99,216c0-17,6-35,17-50-5-17-12-53,2-66a83.29,83.29,0,0,1,55,21,148.2,148.2,0,0,1,57-11c21,0,40,4,56,11a83.29,83.29,0,0,1,55-21c15,14,7,50,2,66,11,15,17,32,16,50a99.74,99.74,0,0,1-1.1,14.09,660.58,660.58,0,0,1,82,1c0,3.37-.33,6.66-.51,10a647.9,647.9,0,0,0-83.59-.89,82.72,82.72,0,0,1-3.25,9.8,621.55,621.55,0,0,1,85.48,6.89q-.65,5-1.51,9.87A609.43,609.43,0,0,0,347.77,260c-16.65,28.78-52.2,47.55-107.77,49.74V310c26,0,50,39,50,66v54a20,20,0,0,0,12.09,18.36C393.7,418,460,331.64,460,230,460,103.18,356.83,0,230,0S0,103.18,0,230C0,331.64,66.3,418,157.91,448.36Z"/></g></g></svg>