<svg xmlns="http://www.w3.org/2000/svg" viewBox="0 0 455 452.75"><defs><style>.cls-1{fill:#e0e0e0;}.cls-2{fill:#d9d9d9;}.cls-3{fill:#eee;}.cls-4{fill:#ca3737;}.cls-5{fill:#f5f5f5;}.cls-6{fill:#e84f4b;}</style></defs><title>gmail_1</title><g id="Layer_2" data-name="Layer 2"><g id="Layer_1-2" data-name="Layer 1"><path class="cls-1" d="M36.19,452.75H418.81c20,0,36.19-21.5,36.19-48V48c0-26.52-16.2-48-36.19-48H36.19C16.2,0,0,21.5,0,48V404.73C0,431.25,16.2,452.75,36.19,452.75Z"/><path class="cls-2" d="M248.18,452.75H418.81c20,0,36.19-21.5,36.19-48V48c0-26.52-16.2-48-36.19-48H36.19C16.2,0,0,21.5,0,48Z"/><path class="cls-3" d="M49.07,452.75H418.81c20,0,36.19-21.5,36.19-48V54.88Z"/><path class="cls-1" d="M245.54,452.75H418.81c20,0,36.19-21.5,36.19-48V54.88l-281.57,276Z"/><path class="cls-4" d="M418.81,27.44H36.19C16.2,27.44,0,21.5,0,48V404.73c0,26.52,16.2,48,36.19,48H51.7v-391H403.3v391h15.51c20,0,36.19-21.5,36.19-48V48C455,21.5,438.8,27.44,418.81,27.44Z"/><path class="cls-5" d="M418.81,0H36.19C16.2,0,0,21.07,0,48,0,64.56,15.7,79,15.7,79L227.5,277.91,439.3,79S455,64.56,455,48C455,21.07,438.8,0,418.81,0Z"/><path class="cls-6" d="M426.52,1.13l-199,184.09L28.48,1.13C12.2,5.75,0,24.65,0,48,0,64.56,15.7,79,15.7,79L227.5,277.91,439.3,79S455,64.56,455,48C455,24.65,442.8,5.75,426.52,1.13Z"/></g></g></svg>