<svg xmlns="http://www.w3.org/2000/svg" xmlns:xlink="http://www.w3.org/1999/xlink" viewBox="0 0 452.75 452.75"><defs><style>.cls-1{fill:url(#linear-gradient);}.cls-2{fill:url(#linear-gradient-2);}.cls-3{fill:url(#linear-gradient-3);}</style><linearGradient id="linear-gradient" x1="138.83" y1="-91.14" x2="549.44" y2="301.88" gradientUnits="userSpaceOnUse"><stop offset="0" stop-color="#ffe185"/><stop offset="0.21" stop-color="#ffbb36"/><stop offset="0.38" stop-color="#ff5176"/><stop offset="0.52" stop-color="#f63395"/><stop offset="0.74" stop-color="#a436d2"/><stop offset="1" stop-color="#5f4eed"/></linearGradient><linearGradient id="linear-gradient-2" x1="22.97" y1="29.91" x2="433.58" y2="422.92" xlink:href="#linear-gradient"/><linearGradient id="linear-gradient-3" x1="22.08" y1="30.83" x2="432.68" y2="423.85" xlink:href="#linear-gradient"/></defs><title>Instagram</title><g id="Layer_2" data-name="Layer 2"><g id="Layer_1-2" data-name="Layer 1"><path class="cls-1" d="M346.23,80.84a26.55,26.55,0,1,0,26.55,26.54A26.54,26.54,0,0,0,346.23,80.84Z"/><path class="cls-2" d="M228.23,114.88a111.5,111.5,0,1,0,111.5,111.49A111.62,111.62,0,0,0,228.23,114.88Zm0,182.92a71.43,71.43,0,1,1,71.42-71.43A71.5,71.5,0,0,1,228.23,297.8Z"/><path class="cls-3" d="M316.75,452.75H136c-75,0-136-61-136-136V136C0,61,61,0,136,0H316.75c75,0,136,61,136,136V316.76C452.75,391.75,391.74,452.75,316.75,452.75ZM136,42.6A93.5,93.5,0,0,0,42.59,136V316.76a93.51,93.51,0,0,0,93.4,93.4H316.75a93.51,93.51,0,0,0,93.4-93.4V136a93.5,93.5,0,0,0-93.4-93.39Z"/></g></g></svg>