<svg xmlns="http://www.w3.org/2000/svg" viewBox="0 0 452.75 452.75"><defs><style>.cls-1{fill:#0078d4;}.cls-2{opacity:0.05;}.cls-2,.cls-3{isolation:isolate;}.cls-3{opacity:0.07;}.cls-4{fill:#fff;}</style></defs><title>linkedIn</title><g id="Layer_2" data-name="Layer 2"><g id="Layer_1-2" data-name="Layer 1"><path class="cls-1" d="M452.75,389.87a62.88,62.88,0,0,1-62.88,62.88h-327A62.88,62.88,0,0,1,0,389.87v-327A62.88,62.88,0,0,1,62.88,0h327a62.88,62.88,0,0,1,62.88,62.88Z"/><path class="cls-2" d="M301.83,389.87v-127c0-21.24-10.3-33.93-27.56-33.93-10.25,0-17.79,5.77-22.38,17.15-.21.81-.51,4.09-.39,14l0,129.78h-88V150.92h88v13.34c12.85-8.87,28.61-13.34,47-13.34,57.18,0,91.32,38.9,91.32,104.05v134.9Zm-238.95,0V150.92h43.48c-25.19,0-43.48-18.52-43.48-44s18.59-44,44.2-44c25.3,0,43.32,18,43.84,43.76,0,25.7-18.6,44.28-44.21,44.28h44.21v239Z"/><path class="cls-3" d="M308.12,383.58V262.86c0-24.81-13-40.22-33.85-40.22-16.29,0-24.34,11.47-28.21,21.09-1,2.5-.9,12.44-.85,16.68l0,123.17H169.78V157.2h75.46v20.6c10-10.35,26.1-20.6,53.3-20.6,53.23,0,85,36.55,85,97.77V383.58Zm-238.95,0V157.2h75.46V383.58Zm37.19-238.95c-21.54,0-37.19-15.87-37.19-37.74s16-37.72,37.91-37.72c21.68,0,37.11,15.46,37.55,37.59,0,22-15.95,37.87-37.92,37.87Z"/><path class="cls-4" d="M75.46,163.49h62.88v213.8H75.46Zm31.25-25.15h-.35c-18.77,0-30.9-14-30.9-31.45C75.46,89,88,75.46,107.08,75.46S138,89,138.34,106.89C138.34,124.34,126.2,138.34,106.71,138.34Zm270.58,239H314.41V262.86c0-27.64-15.41-46.51-40.14-46.51-18.88,0-29.09,12.73-34,25C238.41,245.78,239,258,239,264.1V377.29H176.07V163.49H239v32.9c9.07-14,23.27-32.9,59.59-32.9,45,0,78.74,28.3,78.74,91.48V377.29Z"/></g></g></svg>