<svg xmlns="http://www.w3.org/2000/svg" viewBox="0 0 565.38 565.38"><title>Asset 11</title><g id="Layer_2" data-name="Layer 2"><g id="Layer_1-2" data-name="Layer 1"><path d="M94.23,0A94.23,94.23,0,0,0,0,94.23V471.15a94.23,94.23,0,0,0,94.23,94.23H471.15a94.23,94.23,0,0,0,94.23-94.23V94.23A94.23,94.23,0,0,0,471.15,0Zm28.08,121.15H229.16L305,229l92.07-107.83h33.66L320.24,250.56,456.53,444.23H349.71l-88-125.1L154.81,444.23H121.15L246.46,297.55Zm51.53,26.93L363.75,417.31H405L215.09,148.08Z"/></g></g></svg>