<svg xmlns="http://www.w3.org/2000/svg" viewBox="0 0 550.08 452.75"><defs><style>.cls-1{fill:#0cf;}</style></defs><title>Twitter</title><g id="Layer_2" data-name="Layer 2"><g id="Layer_1-2" data-name="Layer 1"><path class="cls-1" d="M547.82,54.27C530.36,62.17,511,67,492.19,70.13c8.94-1.51,22.08-17.7,27.35-24.25,8-10,14.71-21.38,18.46-33.67.49-1,.84-2.17-.12-2.89a3.15,3.15,0,0,0-2.94.24A283.52,283.52,0,0,1,469,34.8a4.43,4.43,0,0,1-4.55-1.2,53.86,53.86,0,0,0-5.76-5.9,116.66,116.66,0,0,0-32-19.58,111.38,111.38,0,0,0-49-7.89,117.28,117.28,0,0,0-46.49,13.13A119.93,119.93,0,0,0,293.71,44a115.28,115.28,0,0,0-22.39,44.86c-3.86,15.78-3.55,31.4-1.19,47.35.36,2.66.12,3-2.27,2.66C177.27,125.38,102.18,93,41.22,23.51c-2.64-3-4.07-3-6.25.23C8.29,63.72,21.24,128,54.56,159.52c4.45,4.22,9,8.42,13.93,12.26-1.79.37-24-2-43.73-12.26-2.65-1.67-4-.71-4.21,2.3a68,68,0,0,0,.72,13c5.11,40.54,33.18,78,71.63,92.65a67.74,67.74,0,0,0,14.52,4.44c-8.76,1.92-17.78,3.3-42.89,1.33-3.12-.6-4.32,1-3.12,4,18.87,51.44,59.6,66.75,90.12,75.47,4.08.71,8.16.71,12.26,1.67-.25.37-.49.37-.73.73-10.11,15.43-45.2,26.9-61.54,32.61-29.71,10.39-62.07,15.06-93.47,12-5-.74-6.08-.68-7.45,0-1.38.85-.17,2.06,1.45,3.35,6.37,4.21,12.85,7.94,19.46,11.55a308.47,308.47,0,0,0,62.48,25c112.29,31,238.78,8.22,323.09-75.55,66.21-65.78,89.42-156.5,89.42-247.33,0-3.56,4.19-5.52,6.69-7.4,17.23-12.94,31.12-28.43,44-45.73a13.94,13.94,0,0,0,2.92-8.76v-.47C550.08,52.82,550,53.26,547.82,54.27Z"/></g></g></svg>