<svg xmlns="http://www.w3.org/2000/svg" viewBox="0 0 451.64 452.75"><defs><style>.cls-1,.cls-2{fill:#00d954;}.cls-2{fill-rule:evenodd;}</style></defs><title>Whatsapp</title><g id="Layer_2" data-name="Layer 2"><g id="Layer_1-2" data-name="Layer 1"><path class="cls-1" d="M0,452.75,32.46,331.64a222.84,222.84,0,0,1-28-108C4.41,100.32,104.73,0,228,0S451.64,100.32,451.64,223.61,351.33,447.23,228,447.23a223.06,223.06,0,0,1-106.29-27.09Zm127.78-78,7.67,4.58A181.09,181.09,0,0,0,228,405c100,0,181.35-81.35,181.35-181.35S328,42.27,228,42.27,46.68,123.62,46.68,223.61a180.85,180.85,0,0,0,26.52,94l4.7,7.72L59.78,393Z"/><path class="cls-2" d="M311.21,254.71c-9.21-5.5-21.18-11.65-32-7.21-8.32,3.4-13.63,16.42-19,23.07-2.77,3.42-6.07,3.95-10.32,2.24-31.22-12.44-55.15-33.29-72.38-62-2.92-4.46-2.4-8,1.12-12.12,5.21-6.13,11.74-13.09,13.15-21.35s-2.47-17.91-5.88-25.27c-4.36-9.4-9.24-22.8-18.65-28.11-8.66-4.89-20.06-2.16-27.77,4.12-13.31,10.84-19.73,27.82-19.53,44.65a63.61,63.61,0,0,0,1.75,14.17c2.69,11.1,7.82,21.46,13.6,31.32a246.07,246.07,0,0,0,14.19,21.58A219,219,0,0,0,211,296.93a186.41,186.41,0,0,0,38.37,18.25c15,5,28.44,10.14,44.68,7.06,17-3.23,33.76-13.75,40.51-30.14,2-4.85,3-10.25,1.88-15.37C334.12,266.13,319.78,259.84,311.21,254.71Z"/></g></g></svg>